SplineFontDB: 3.0
FontName: CaslonStM
FullName: Sorts Mill Caslon
FamilyName: Sorts Mill Caslon
Weight: Regular
Copyright: Created by trashman with FontForge 2.0 (http://fontforge.sf.net)
UComments: "Scan 12pt at 6400, cut 1100, scale 96%+AAoA-Print at 13pt to match the original size (with the extra 1 point for long descenders)." 
Version: 001.000
ItalicAngle: 0
UnderlinePosition: -100
UnderlineWidth: 50
Ascent: 800
Descent: 200
LayerCount: 3
Layer: 0 0 "Back"  1
Layer: 1 0 "Fore"  0
Layer: 2 0 "backup"  0
NeedsXUIDChange: 1
XUID: [1021 658 797806517 11018343]
OS2Version: 0
OS2_WeightWidthSlopeOnly: 0
OS2_UseTypoMetrics: 1
CreationTime: 1292401491
ModificationTime: 1292621983
OS2TypoAscent: 0
OS2TypoAOffset: 1
OS2TypoDescent: 0
OS2TypoDOffset: 1
OS2TypoLinegap: 0
OS2WinAscent: 0
OS2WinAOffset: 1
OS2WinDescent: 0
OS2WinDOffset: 1
HheadAscent: 0
HheadAOffset: 1
HheadDescent: 0
HheadDOffset: 1
OS2Vendor: 'PfEd'
MarkAttachClasses: 1
DEI: 91125
Encoding: UnicodeBmp
UnicodeInterp: none
NameList: Adobe Glyph List
DisplaySize: -48
AntiAlias: 1
FitToEm: 1
WinInfo: 80 10 4
BeginChars: 65536 63

StartChar: a
Encoding: 97 97 0
Width: 419
VWidth: 0
Flags: W
HStem: -15 63<313.298 369.078> -8 49<112.553 187.039> 250 21G<71.5 84.5> 250 21G<71.5 84.5> 340 32<141.748 261.075>
VStem: 56 73<256.658 326.129> 56 51<47.147 124.364> 250 55<65.0455 184.905 195.737 267.969> 259 61<131.819 324.353>
LayerCount: 3
Fore
SplineSet
116 -8 m 0x49
 83 -8 56 16 56 64 c 0x4b
 56 145 127 163 256 203 c 1
 257 225 259 247 259 269 c 0
 259 295 246 340 197 340 c 0
 157 340 132 323 129 306 c 0
 126 292 128 264 102 254 c 0
 96 252 89 250 80 250 c 0
 63 250 56 263 56 279 c 0
 56 328 107 349 156 361 c 0
 183 367 220 372 238 372 c 0
 284 372 320 356 320 290 c 0x6c80
 320 258 305 147 305 131 c 0x69
 305 72 316 48 344 48 c 0
 371 48 389 83 389 83 c 1
 400 64 l 1
 400 64 381 -15 320 -15 c 0xa880
 274 -15 258 25 250 43 c 0
 245 55 246 51 232 42 c 0
 211 27 160 -8 116 -8 c 0x49
107 83 m 0
 107 58 125 41 158 41 c 0
 186 41 217 56 242 74 c 0
 250 79 250 82 250 90 c 0
 250 117 253 163 255 186 c 1
 180 163 107 142 107 83 c 0
EndSplineSet
EndChar

StartChar: b
Encoding: 98 98 1
Width: 450
VWidth: 0
Flags: W
LayerCount: 3
Fore
SplineSet
129 72 m 2
 129 57 174 10 234 10 c 0
 302 10 343 63 343 167 c 0
 343 256 308 340 216 340 c 0
 169 340 129 320 129 297 c 2
 129 72 l 2
130 338 m 1
 179 369 232 373 244 373 c 0
 372 373 413 268 413 183 c 0
 413 79 343 -17 226 -17 c 0
 171 -17 124 23 120 23 c 0
 111 23 101 0 90 0 c 0
 76 0 76 16 76 25 c 0
 76 68 76 505 71 527 c 0
 68 539 40 556 19 569 c 1
 19 569 19 589 19 590 c 1
 70 609 114 631 120 634 c 1
 128 629 133 623 133 623 c 1
 133 520 130 396 130 338 c 1
EndSplineSet
EndChar

StartChar: c
Encoding: 99 99 2
Width: 349
VWidth: 0
Flags: W
LayerCount: 3
Fore
SplineSet
198 346 m 0
 129 346 86 274 86 193 c 0
 86 117 119 35 216 35 c 0
 276 35 300 70 308 75 c 1
 319 61 l 1
 305 23 257 -16 194 -16 c 0
 80 -16 27 79 27 174 c 0
 28 304 110 383 212 383 c 0
 253 383 314 351 314 315 c 0
 314 305 309 282 287 282 c 0
 252 282 249 314 228 332 c 0
 217 341 208 346 198 346 c 0
EndSplineSet
EndChar

StartChar: d
Encoding: 100 100 3
Width: 474
VWidth: 0
Flags: WO
HStem: -11 47<148.741 261.167> 25 29<408.309 458> 358 34<143.485 284.233>
VStem: 21 59<115.527 280.837> 327 56<75.7949 327.722 370 578.917>
LayerCount: 3
Fore
SplineSet
21 184 m 0xb8
 21 290 90 392 231 392 c 0
 255 392 317 375 327 370 c 1
 327 511 l 2
 327 572 326 570 279 591 c 0
 272 594 264 597 264 597 c 1
 265 620 l 1
 325 633 374 647 374 647 c 1
 380 642 385 639 389 635 c 1
 389 623 383 426 383 106 c 0
 383 83 384 45 408 45 c 0
 414 45 458 54 458 54 c 1
 459 25 l 1x78
 391 11 340 -9 329 -12 c 1
 325 -10 322 -7 320 -5 c 1
 320 62 l 1
 298 31 246 -11 186 -11 c 0
 48 -11 21 113 21 184 c 0xb8
80 207 m 0
 80 130 125 36 217 36 c 0xb8
 271 36 327 71 327 136 c 2
 328 299 l 2
 328 304 295 358 217 358 c 0
 101 358 80 277 80 207 c 0
EndSplineSet
Layer: 2
SplineSet
21 184 m 4
 21 290 90 392 231 392 c 4
 255 392 317 375 327 370 c 5
 327 511 l 6
 327 572 326 570 279 591 c 4
 271.663085938 594.42388916 264 597.15234375 264 597.15234375 c 5
 264.612304688 620 l 5
 325 633 374 647 374 647 c 5
 380 642 385 639 389 635 c 5
 389 623 383 426 383 106 c 4
 383 83 384 45 408 45 c 4
 414 45 458 54 458 54 c 5
 459 25 l 5
 391 12 339 -11 331 -11 c 4
 321 -11 320 -6 320 1 c 6
 320 62 l 5
 298 31 246 -11 186 -11 c 4
 48 -11 21 113 21 184 c 4
80 207 m 4
 80 130 125 36 217 36 c 4
 271 36 327 71 327 136 c 6
 328 299 l 6
 328 304 295 358 217 358 c 4
 101 358 80 277 80 207 c 4
EndSplineSet
EndChar

StartChar: e
Encoding: 101 101 4
Width: 390
VWidth: 0
Flags: W
LayerCount: 3
Fore
SplineSet
26 182 m 0
 26 286 87 380 197 380 c 0
 334 380 343 264.383049909 343 234 c 1
 87 232 l 1
 87 232 83 206 83 187 c 0
 83 103 147 40 230 40 c 0
 299 40 348 104 348 104 c 1
 364 95 l 1
 358 76 301 -15 205 -15 c 0
 86 -15 26 73 26 182 c 0
185 351 m 0
 134 351 100 298 94 257 c 1
 94 257 222 259 241 260 c 0
 264 261 266 273 266 287 c 0
 266 331 234 351 185 351 c 0
EndSplineSet
EndChar

StartChar: f
Encoding: 102 102 5
Width: 200
VWidth: 0
Flags: W
LayerCount: 3
Fore
SplineSet
40 172 m 4
 40 205 67 232 100 232 c 4
 133 232 160 205 160 172 c 4
 160 139 133 112 100 112 c 4
 67 112 40 139 40 172 c 4
EndSplineSet
EndChar

StartChar: g
Encoding: 103 103 6
Width: 200
VWidth: 0
Flags: W
LayerCount: 3
Fore
SplineSet
40 172 m 4
 40 205 67 232 100 232 c 4
 133 232 160 205 160 172 c 4
 160 139 133 112 100 112 c 4
 67 112 40 139 40 172 c 4
EndSplineSet
EndChar

StartChar: h
Encoding: 104 104 7
Width: 200
VWidth: 0
Flags: W
LayerCount: 3
Fore
SplineSet
40 172 m 4
 40 205 67 232 100 232 c 4
 133 232 160 205 160 172 c 4
 160 139 133 112 100 112 c 4
 67 112 40 139 40 172 c 4
EndSplineSet
EndChar

StartChar: i
Encoding: 105 105 8
Width: 200
VWidth: 0
Flags: W
LayerCount: 3
Fore
SplineSet
40 172 m 4
 40 205 67 232 100 232 c 4
 133 232 160 205 160 172 c 4
 160 139 133 112 100 112 c 4
 67 112 40 139 40 172 c 4
EndSplineSet
EndChar

StartChar: j
Encoding: 106 106 9
Width: 200
VWidth: 0
Flags: W
LayerCount: 3
Fore
SplineSet
40 172 m 4
 40 205 67 232 100 232 c 4
 133 232 160 205 160 172 c 4
 160 139 133 112 100 112 c 4
 67 112 40 139 40 172 c 4
EndSplineSet
EndChar

StartChar: k
Encoding: 107 107 10
Width: 200
VWidth: 0
Flags: W
LayerCount: 3
Fore
SplineSet
40 172 m 4
 40 205 67 232 100 232 c 4
 133 232 160 205 160 172 c 4
 160 139 133 112 100 112 c 4
 67 112 40 139 40 172 c 4
EndSplineSet
EndChar

StartChar: l
Encoding: 108 108 11
Width: 288
VWidth: 0
Flags: W
LayerCount: 3
Fore
SplineSet
250 0 m 1xd0
 23 0 l 1
 23 28 l 1
 111 28 l 1
 111 92 112 209 112 317 c 0xd0
 112 418 111 510 109 539 c 0
 108 556 110 561 98 571 c 0
 91 577 74 583 55 592 c 1
 55 611 l 1
 115 631 162 649 167 651 c 1
 169 649 178 640 179 638 c 5xe0
 173 510 172 418 172 297 c 2
 172 28 l 1
 250 28 l 1
 250 0 l 1xd0
EndSplineSet
EndChar

StartChar: m
Encoding: 109 109 12
Width: 200
VWidth: 0
Flags: W
LayerCount: 3
Fore
SplineSet
40 172 m 4
 40 205 67 232 100 232 c 4
 133 232 160 205 160 172 c 4
 160 139 133 112 100 112 c 4
 67 112 40 139 40 172 c 4
EndSplineSet
EndChar

StartChar: n
Encoding: 110 110 13
Width: 200
VWidth: 0
Flags: W
LayerCount: 3
Fore
SplineSet
40 172 m 4
 40 205 67 232 100 232 c 4
 133 232 160 205 160 172 c 4
 160 139 133 112 100 112 c 4
 67 112 40 139 40 172 c 4
EndSplineSet
EndChar

StartChar: o
Encoding: 111 111 14
Width: 435
VWidth: 0
Flags: W
LayerCount: 3
Fore
SplineSet
393 180 m 0
 393 75 320 -15 208 -15 c 0
 96 -15 31 77 31 183 c 0
 31 289 114 373 216 373 c 0
 317 373 393 286 393 180 c 0
203 19 m 0
 296 19 326 106 326 187 c 0
 326 250 286 343 206 343 c 0
 132 343 95 267 95 191 c 0
 95 104 132 19 203 19 c 0
EndSplineSet
EndChar

StartChar: p
Encoding: 112 112 15
Width: 200
VWidth: 0
Flags: W
LayerCount: 3
Fore
SplineSet
40 172 m 4
 40 205 67 232 100 232 c 4
 133 232 160 205 160 172 c 4
 160 139 133 112 100 112 c 4
 67 112 40 139 40 172 c 4
EndSplineSet
EndChar

StartChar: q
Encoding: 113 113 16
Width: 200
VWidth: 0
Flags: W
LayerCount: 3
Fore
SplineSet
40 172 m 4
 40 205 67 232 100 232 c 4
 133 232 160 205 160 172 c 4
 160 139 133 112 100 112 c 4
 67 112 40 139 40 172 c 4
EndSplineSet
EndChar

StartChar: r
Encoding: 114 114 17
Width: 340
VWidth: 0
Flags: W
LayerCount: 3
Fore
SplineSet
140 259 m 0
 139 234 139 197 139 166 c 0
 139 113 140 59 141 28 c 1
 201 28 l 1
 201 0 l 1
 22 0 l 1
 22 28 l 1
 83 28 l 1
 82 118 83 178 81 278 c 0
 81 286 75 295 33 322 c 1
 33 339 l 1
 68 351 129 388 129 388 c 1
 129 388 134 385 138 381 c 1
 138 290 l 1
 138 290 188 374 265 374 c 0
 293 374 331 362 331 327 c 0
 331 305 314 286 290 286 c 0
 262 286 238 311 205 311 c 0
 162 311 140 260 140 259 c 0
EndSplineSet
EndChar

StartChar: s
Encoding: 115 115 18
Width: 200
VWidth: 0
Flags: W
LayerCount: 3
Fore
SplineSet
40 172 m 4
 40 205 67 232 100 232 c 4
 133 232 160 205 160 172 c 4
 160 139 133 112 100 112 c 4
 67 112 40 139 40 172 c 4
EndSplineSet
EndChar

StartChar: t
Encoding: 116 116 19
Width: 298
VWidth: 0
Flags: W
LayerCount: 3
Fore
SplineSet
30 328 m 2
 30 334 l 2
 30 336 30 338 32 340 c 0
 85 391 118 453 138 485 c 1
 144 485 151 483 156 481 c 1
 150 439 148 367 148 367 c 1
 148 367 256 370 261 370 c 0
 266 370 268 369 268 364 c 0
 268 359 267 351 263 340 c 0
 259 328 260 320 251 320 c 0
 229 320 152 321 141 321 c 1
 140 262 138 204 138 145 c 0
 138 93 146 21 204 21 c 0
 238 21 268 45 268 45 c 1
 275 25 l 1
 257 -1 219 -20 191 -20 c 0
 117 -20 77 21 77 84 c 0
 77 146 81 252 81 319 c 1
 40 319 l 2
 33 319 30 319 30 328 c 2
EndSplineSet
EndChar

StartChar: u
Encoding: 117 117 20
Width: 200
VWidth: 0
Flags: W
HStem: 112 120<53.7454 146.255>
VStem: 40 120<125.745 218.255>
LayerCount: 3
Fore
SplineSet
40 172 m 4
 40 205 67 232 100 232 c 4
 133 232 160 205 160 172 c 4
 160 139 133 112 100 112 c 4
 67 112 40 139 40 172 c 4
EndSplineSet
EndChar

StartChar: v
Encoding: 118 118 21
Width: 200
VWidth: 0
Flags: W
HStem: 112 120<53.7454 146.255>
VStem: 40 120<125.745 218.255>
LayerCount: 3
Fore
SplineSet
40 172 m 4
 40 205 67 232 100 232 c 4
 133 232 160 205 160 172 c 4
 160 139 133 112 100 112 c 4
 67 112 40 139 40 172 c 4
EndSplineSet
EndChar

StartChar: w
Encoding: 119 119 22
Width: 200
VWidth: 0
Flags: W
HStem: 112 120<53.7454 146.255>
VStem: 40 120<125.745 218.255>
LayerCount: 3
Fore
SplineSet
40 172 m 4
 40 205 67 232 100 232 c 4
 133 232 160 205 160 172 c 4
 160 139 133 112 100 112 c 4
 67 112 40 139 40 172 c 4
EndSplineSet
EndChar

StartChar: x
Encoding: 120 120 23
Width: 200
VWidth: 0
Flags: W
HStem: 112 120<53.7454 146.255>
VStem: 40 120<125.745 218.255>
LayerCount: 3
Fore
SplineSet
40 172 m 4
 40 205 67 232 100 232 c 4
 133 232 160 205 160 172 c 4
 160 139 133 112 100 112 c 4
 67 112 40 139 40 172 c 4
EndSplineSet
EndChar

StartChar: y
Encoding: 121 121 24
Width: 200
VWidth: 0
Flags: W
HStem: 112 120<53.7454 146.255>
VStem: 40 120<125.745 218.255>
LayerCount: 3
Fore
SplineSet
40 172 m 4
 40 205 67 232 100 232 c 4
 133 232 160 205 160 172 c 4
 160 139 133 112 100 112 c 4
 67 112 40 139 40 172 c 4
EndSplineSet
EndChar

StartChar: z
Encoding: 122 122 25
Width: 200
VWidth: 0
Flags: W
HStem: 112 120<53.7454 146.255>
VStem: 40 120<125.745 218.255>
LayerCount: 3
Fore
SplineSet
40 172 m 4
 40 205 67 232 100 232 c 4
 133 232 160 205 160 172 c 4
 160 139 133 112 100 112 c 4
 67 112 40 139 40 172 c 4
EndSplineSet
EndChar

StartChar: zero
Encoding: 48 48 52
Width: 200
VWidth: 0
Flags: W
HStem: 112 120<53.7454 146.255>
VStem: 40 120<125.745 218.255>
LayerCount: 3
Fore
SplineSet
40 172 m 0
 40 205 67 232 100 232 c 0
 133 232 160 205 160 172 c 0
 160 139 133 112 100 112 c 0
 67 112 40 139 40 172 c 0
EndSplineSet
EndChar

StartChar: one
Encoding: 49 49 53
Width: 200
VWidth: 0
Flags: W
HStem: 112 120<53.7454 146.255>
VStem: 40 120<125.745 218.255>
LayerCount: 3
Fore
SplineSet
40 172 m 0
 40 205 67 232 100 232 c 0
 133 232 160 205 160 172 c 0
 160 139 133 112 100 112 c 0
 67 112 40 139 40 172 c 0
EndSplineSet
EndChar

StartChar: two
Encoding: 50 50 54
Width: 200
VWidth: 0
Flags: W
HStem: 112 120<53.7454 146.255>
VStem: 40 120<125.745 218.255>
LayerCount: 3
Fore
SplineSet
40 172 m 0
 40 205 67 232 100 232 c 0
 133 232 160 205 160 172 c 0
 160 139 133 112 100 112 c 0
 67 112 40 139 40 172 c 0
EndSplineSet
EndChar

StartChar: three
Encoding: 51 51 55
Width: 200
VWidth: 0
Flags: W
HStem: 112 120<53.7454 146.255>
VStem: 40 120<125.745 218.255>
LayerCount: 3
Fore
SplineSet
40 172 m 0
 40 205 67 232 100 232 c 0
 133 232 160 205 160 172 c 0
 160 139 133 112 100 112 c 0
 67 112 40 139 40 172 c 0
EndSplineSet
EndChar

StartChar: four
Encoding: 52 52 56
Width: 200
VWidth: 0
Flags: W
HStem: 112 120<53.7454 146.255>
VStem: 40 120<125.745 218.255>
LayerCount: 3
Fore
SplineSet
40 172 m 0
 40 205 67 232 100 232 c 0
 133 232 160 205 160 172 c 0
 160 139 133 112 100 112 c 0
 67 112 40 139 40 172 c 0
EndSplineSet
EndChar

StartChar: five
Encoding: 53 53 57
Width: 200
VWidth: 0
Flags: W
HStem: 112 120<53.7454 146.255>
VStem: 40 120<125.745 218.255>
LayerCount: 3
Fore
SplineSet
40 172 m 0
 40 205 67 232 100 232 c 0
 133 232 160 205 160 172 c 0
 160 139 133 112 100 112 c 0
 67 112 40 139 40 172 c 0
EndSplineSet
EndChar

StartChar: six
Encoding: 54 54 58
Width: 200
VWidth: 0
Flags: W
HStem: 112 120<53.7454 146.255>
VStem: 40 120<125.745 218.255>
LayerCount: 3
Fore
SplineSet
40 172 m 0
 40 205 67 232 100 232 c 0
 133 232 160 205 160 172 c 0
 160 139 133 112 100 112 c 0
 67 112 40 139 40 172 c 0
EndSplineSet
EndChar

StartChar: seven
Encoding: 55 55 59
Width: 200
VWidth: 0
Flags: W
HStem: 112 120<53.7454 146.255>
VStem: 40 120<125.745 218.255>
LayerCount: 3
Fore
SplineSet
40 172 m 0
 40 205 67 232 100 232 c 0
 133 232 160 205 160 172 c 0
 160 139 133 112 100 112 c 0
 67 112 40 139 40 172 c 0
EndSplineSet
EndChar

StartChar: eight
Encoding: 56 56 60
Width: 200
VWidth: 0
Flags: W
HStem: 112 120<53.7454 146.255>
VStem: 40 120<125.745 218.255>
LayerCount: 3
Fore
SplineSet
40 172 m 0
 40 205 67 232 100 232 c 0
 133 232 160 205 160 172 c 0
 160 139 133 112 100 112 c 0
 67 112 40 139 40 172 c 0
EndSplineSet
EndChar

StartChar: nine
Encoding: 57 57 61
Width: 200
VWidth: 0
Flags: W
HStem: 112 120<53.7454 146.255>
VStem: 40 120<125.745 218.255>
LayerCount: 3
Fore
SplineSet
40 172 m 0
 40 205 67 232 100 232 c 0
 133 232 160 205 160 172 c 0
 160 139 133 112 100 112 c 0
 67 112 40 139 40 172 c 0
EndSplineSet
EndChar

